<svg width="213" height="154" viewBox="0 0 213 154" fill="none" xmlns="http://www.w3.org/2000/svg">
<circle cx="1.77568" cy="1.77568" r="1.77568" fill="#EBEBEB"/>
<circle cx="12.7757" cy="1.77568" r="1.77568" fill="#EBEBEB"/>
<circle cx="23.7757" cy="1.77568" r="1.77568" fill="#EBEBEB"/>
<circle cx="34.7757" cy="1.77568" r="1.77568" fill="#EBEBEB"/>
<circle cx="45.7757" cy="1.77568" r="1.77568" fill="#EBEBEB"/>
<circle cx="56.7757" cy="1.77568" r="1.77568" fill="#EBEBEB"/>
<circle cx="67.7757" cy="1.77568" r="1.77568" fill="#EBEBEB"/>
<circle cx="78.7757" cy="1.77568" r="1.77568" fill="#EBEBEB"/>
<circle cx="89.7757" cy="1.77568" r="1.77568" fill="#EBEBEB"/>
<circle cx="100.776" cy="1.77568" r="1.77568" fill="#EBEBEB"/>
<circle cx="111.776" cy="1.77568" r="1.77568" fill="#EBEBEB"/>
<circle cx="122.776" cy="1.77568" r="1.77568" fill="#EBEBEB"/>
<circle cx="133.776" cy="1.77568" r="1.77568" fill="#EBEBEB"/>
<circle cx="144.776" cy="1.77568" r="1.77568" fill="#EBEBEB"/>
<circle cx="155.776" cy="1.77568" r="1.77568" fill="#EBEBEB"/>
<circle cx="166.776" cy="1.77568" r="1.77568" fill="#EBEBEB"/>
<circle cx="177.776" cy="1.77568" r="1.77568" fill="#EBEBEB"/>
<circle cx="188.776" cy="1.77568" r="1.77568" fill="#EBEBEB"/>
<circle cx="199.776" cy="1.77568" r="1.77568" fill="#EBEBEB"/>
<circle cx="210.776" cy="1.77568" r="1.77568" fill="#EBEBEB"/>
<circle cx="1.77568" cy="11.7757" r="1.77568" fill="#EBEBEB"/>
<circle cx="12.7757" cy="11.7757" r="1.77568" fill="#EBEBEB"/>
<circle cx="23.7757" cy="11.7757" r="1.77568" fill="#EBEBEB"/>
<circle cx="34.7757" cy="11.7757" r="1.77568" fill="#EBEBEB"/>
<circle cx="45.7757" cy="11.7757" r="1.77568" fill="#EBEBEB"/>
<circle cx="56.7757" cy="11.7757" r="1.77568" fill="#EBEBEB"/>
<circle cx="67.7757" cy="11.7757" r="1.77568" fill="#EBEBEB"/>
<circle cx="78.7757" cy="11.7757" r="1.77568" fill="#EBEBEB"/>
<circle cx="89.7757" cy="11.7757" r="1.77568" fill="#EBEBEB"/>
<circle cx="100.776" cy="11.7757" r="1.77568" fill="#EBEBEB"/>
<circle cx="111.776" cy="11.7757" r="1.77568" fill="#EBEBEB"/>
<circle cx="122.776" cy="11.7757" r="1.77568" fill="#EBEBEB"/>
<circle cx="133.776" cy="11.7757" r="1.77568" fill="#EBEBEB"/>
<circle cx="144.776" cy="11.7757" r="1.77568" fill="#EBEBEB"/>
<circle cx="155.776" cy="11.7757" r="1.77568" fill="#EBEBEB"/>
<circle cx="166.776" cy="11.7757" r="1.77568" fill="#EBEBEB"/>
<circle cx="177.776" cy="11.7757" r="1.77568" fill="#EBEBEB"/>
<circle cx="188.776" cy="11.7757" r="1.77568" fill="#EBEBEB"/>
<circle cx="199.776" cy="11.7757" r="1.77568" fill="#EBEBEB"/>
<circle cx="210.776" cy="11.7757" r="1.77568" fill="#EBEBEB"/>
<circle cx="1.77568" cy="21.7757" r="1.77568" fill="#EBEBEB"/>
<circle cx="12.7757" cy="21.7757" r="1.77568" fill="#EBEBEB"/>
<circle cx="23.7757" cy="21.7757" r="1.77568" fill="#EBEBEB"/>
<circle cx="34.7757" cy="21.7757" r="1.77568" fill="#EBEBEB"/>
<circle cx="45.7757" cy="21.7757" r="1.77568" fill="#EBEBEB"/>
<circle cx="56.7757" cy="21.7757" r="1.77568" fill="#EBEBEB"/>
<circle cx="67.7757" cy="21.7757" r="1.77568" fill="#EBEBEB"/>
<circle cx="78.7757" cy="21.7757" r="1.77568" fill="#EBEBEB"/>
<circle cx="89.7757" cy="21.7757" r="1.77568" fill="#EBEBEB"/>
<circle cx="100.776" cy="21.7757" r="1.77568" fill="#EBEBEB"/>
<circle cx="111.776" cy="21.7757" r="1.77568" fill="#EBEBEB"/>
<circle cx="122.776" cy="21.7757" r="1.77568" fill="#EBEBEB"/>
<circle cx="133.776" cy="21.7757" r="1.77568" fill="#EBEBEB"/>
<circle cx="144.776" cy="21.7757" r="1.77568" fill="#EBEBEB"/>
<circle cx="155.776" cy="21.7757" r="1.77568" fill="#EBEBEB"/>
<circle cx="166.776" cy="21.7757" r="1.77568" fill="#EBEBEB"/>
<circle cx="177.776" cy="21.7757" r="1.77568" fill="#EBEBEB"/>
<circle cx="188.776" cy="21.7757" r="1.77568" fill="#EBEBEB"/>
<circle cx="199.776" cy="21.7757" r="1.77568" fill="#EBEBEB"/>
<circle cx="210.776" cy="21.7757" r="1.77568" fill="#EBEBEB"/>
<circle cx="1.77568" cy="31.7757" r="1.77568" fill="#EBEBEB"/>
<circle cx="12.7757" cy="31.7757" r="1.77568" fill="#EBEBEB"/>
<circle cx="23.7757" cy="31.7757" r="1.77568" fill="#EBEBEB"/>
<circle cx="34.7757" cy="31.7757" r="1.77568" fill="#EBEBEB"/>
<circle cx="45.7757" cy="31.7757" r="1.77568" fill="#EBEBEB"/>
<circle cx="56.7757" cy="31.7757" r="1.77568" fill="#EBEBEB"/>
<circle cx="67.7757" cy="31.7757" r="1.77568" fill="#EBEBEB"/>
<circle cx="78.7757" cy="31.7757" r="1.77568" fill="#EBEBEB"/>
<circle cx="89.7757" cy="31.7757" r="1.77568" fill="#EBEBEB"/>
<circle cx="100.776" cy="31.7757" r="1.77568" fill="#EBEBEB"/>
<circle cx="111.776" cy="31.7757" r="1.77568" fill="#EBEBEB"/>
<circle cx="122.776" cy="31.7757" r="1.77568" fill="#EBEBEB"/>
<circle cx="133.776" cy="31.7757" r="1.77568" fill="#EBEBEB"/>
<circle cx="144.776" cy="31.7757" r="1.77568" fill="#EBEBEB"/>
<circle cx="155.776" cy="31.7757" r="1.77568" fill="#EBEBEB"/>
<circle cx="166.776" cy="31.7757" r="1.77568" fill="#EBEBEB"/>
<circle cx="177.776" cy="31.7757" r="1.77568" fill="#EBEBEB"/>
<circle cx="188.776" cy="31.7757" r="1.77568" fill="#EBEBEB"/>
<circle cx="199.776" cy="31.7757" r="1.77568" fill="#EBEBEB"/>
<circle cx="210.776" cy="31.7757" r="1.77568" fill="#EBEBEB"/>
<circle cx="1.77568" cy="41.7757" r="1.77568" fill="#EBEBEB"/>
<circle cx="12.7757" cy="41.7757" r="1.77568" fill="#EBEBEB"/>
<circle cx="23.7757" cy="41.7757" r="1.77568" fill="#EBEBEB"/>
<circle cx="34.7757" cy="41.7757" r="1.77568" fill="#EBEBEB"/>
<circle cx="45.7757" cy="41.7757" r="1.77568" fill="#EBEBEB"/>
<circle cx="56.7757" cy="41.7757" r="1.77568" fill="#EBEBEB"/>
<circle cx="67.7757" cy="41.7757" r="1.77568" fill="#EBEBEB"/>
<circle cx="78.7757" cy="41.7757" r="1.77568" fill="#EBEBEB"/>
<circle cx="89.7757" cy="41.7757" r="1.77568" fill="#EBEBEB"/>
<circle cx="100.776" cy="41.7757" r="1.77568" fill="#EBEBEB"/>
<circle cx="111.776" cy="41.7757" r="1.77568" fill="#EBEBEB"/>
<circle cx="122.776" cy="41.7757" r="1.77568" fill="#EBEBEB"/>
<circle cx="133.776" cy="41.7757" r="1.77568" fill="#EBEBEB"/>
<circle cx="144.776" cy="41.7757" r="1.77568" fill="#EBEBEB"/>
<circle cx="155.776" cy="41.7757" r="1.77568" fill="#EBEBEB"/>
<circle cx="166.776" cy="41.7757" r="1.77568" fill="#EBEBEB"/>
<circle cx="177.776" cy="41.7757" r="1.77568" fill="#EBEBEB"/>
<circle cx="188.776" cy="41.7757" r="1.77568" fill="#EBEBEB"/>
<circle cx="199.776" cy="41.7757" r="1.77568" fill="#EBEBEB"/>
<circle cx="210.776" cy="41.7757" r="1.77568" fill="#EBEBEB"/>
<circle cx="1.77568" cy="51.7757" r="1.77568" fill="#EBEBEB"/>
<circle cx="12.7757" cy="51.7757" r="1.77568" fill="#EBEBEB"/>
<circle cx="23.7757" cy="51.7757" r="1.77568" fill="#EBEBEB"/>
<circle cx="34.7757" cy="51.7757" r="1.77568" fill="#EBEBEB"/>
<circle cx="45.7757" cy="51.7757" r="1.77568" fill="#EBEBEB"/>
<circle cx="56.7757" cy="51.7757" r="1.77568" fill="#EBEBEB"/>
<circle cx="67.7757" cy="51.7757" r="1.77568" fill="#EBEBEB"/>
<circle cx="78.7757" cy="51.7757" r="1.77568" fill="#EBEBEB"/>
<circle cx="89.7757" cy="51.7757" r="1.77568" fill="#EBEBEB"/>
<circle cx="100.776" cy="51.7757" r="1.77568" fill="#EBEBEB"/>
<circle cx="111.776" cy="51.7757" r="1.77568" fill="#EBEBEB"/>
<circle cx="122.776" cy="51.7757" r="1.77568" fill="#EBEBEB"/>
<circle cx="133.776" cy="51.7757" r="1.77568" fill="#EBEBEB"/>
<circle cx="144.776" cy="51.7757" r="1.77568" fill="#EBEBEB"/>
<circle cx="155.776" cy="51.7757" r="1.77568" fill="#EBEBEB"/>
<circle cx="166.776" cy="51.7757" r="1.77568" fill="#EBEBEB"/>
<circle cx="177.776" cy="51.7757" r="1.77568" fill="#EBEBEB"/>
<circle cx="188.776" cy="51.7757" r="1.77568" fill="#EBEBEB"/>
<circle cx="199.776" cy="51.7757" r="1.77568" fill="#EBEBEB"/>
<circle cx="210.776" cy="51.7757" r="1.77568" fill="#EBEBEB"/>
<circle cx="1.77568" cy="61.7757" r="1.77568" fill="#EBEBEB"/>
<circle cx="12.7757" cy="61.7757" r="1.77568" fill="#EBEBEB"/>
<circle cx="23.7757" cy="61.7757" r="1.77568" fill="#EBEBEB"/>
<circle cx="34.7757" cy="61.7757" r="1.77568" fill="#EBEBEB"/>
<circle cx="45.7757" cy="61.7757" r="1.77568" fill="#EBEBEB"/>
<circle cx="56.7757" cy="61.7757" r="1.77568" fill="#EBEBEB"/>
<circle cx="67.7757" cy="61.7757" r="1.77568" fill="#EBEBEB"/>
<circle cx="78.7757" cy="61.7757" r="1.77568" fill="#EBEBEB"/>
<circle cx="89.7757" cy="61.7757" r="1.77568" fill="#EBEBEB"/>
<circle cx="100.776" cy="61.7757" r="1.77568" fill="#EBEBEB"/>
<circle cx="111.776" cy="61.7757" r="1.77568" fill="#EBEBEB"/>
<circle cx="122.776" cy="61.7757" r="1.77568" fill="#EBEBEB"/>
<circle cx="133.776" cy="61.7757" r="1.77568" fill="#EBEBEB"/>
<circle cx="144.776" cy="61.7757" r="1.77568" fill="#EBEBEB"/>
<circle cx="155.776" cy="61.7757" r="1.77568" fill="#EBEBEB"/>
<circle cx="166.776" cy="61.7757" r="1.77568" fill="#EBEBEB"/>
<circle cx="177.776" cy="61.7757" r="1.77568" fill="#EBEBEB"/>
<circle cx="188.776" cy="61.7757" r="1.77568" fill="#EBEBEB"/>
<circle cx="199.776" cy="61.7757" r="1.77568" fill="#EBEBEB"/>
<circle cx="210.776" cy="61.7757" r="1.77568" fill="#EBEBEB"/>
<circle cx="1.77568" cy="71.7757" r="1.77568" fill="#EBEBEB"/>
<circle cx="12.7757" cy="71.7757" r="1.77568" fill="#EBEBEB"/>
<circle cx="23.7757" cy="71.7757" r="1.77568" fill="#EBEBEB"/>
<circle cx="34.7757" cy="71.7757" r="1.77568" fill="#EBEBEB"/>
<circle cx="45.7757" cy="71.7757" r="1.77568" fill="#EBEBEB"/>
<circle cx="56.7757" cy="71.7757" r="1.77568" fill="#EBEBEB"/>
<circle cx="67.7757" cy="71.7757" r="1.77568" fill="#EBEBEB"/>
<circle cx="78.7757" cy="71.7757" r="1.77568" fill="#EBEBEB"/>
<circle cx="89.7757" cy="71.7757" r="1.77568" fill="#EBEBEB"/>
<circle cx="100.776" cy="71.7757" r="1.77568" fill="#EBEBEB"/>
<circle cx="111.776" cy="71.7757" r="1.77568" fill="#EBEBEB"/>
<circle cx="122.776" cy="71.7757" r="1.77568" fill="#EBEBEB"/>
<circle cx="133.776" cy="71.7757" r="1.77568" fill="#EBEBEB"/>
<circle cx="144.776" cy="71.7757" r="1.77568" fill="#EBEBEB"/>
<circle cx="155.776" cy="71.7757" r="1.77568" fill="#EBEBEB"/>
<circle cx="166.776" cy="71.7757" r="1.77568" fill="#EBEBEB"/>
<circle cx="177.776" cy="71.7757" r="1.77568" fill="#EBEBEB"/>
<circle cx="188.776" cy="71.7757" r="1.77568" fill="#EBEBEB"/>
<circle cx="199.776" cy="71.7757" r="1.77568" fill="#EBEBEB"/>
<circle cx="210.776" cy="71.7757" r="1.77568" fill="#EBEBEB"/>
<circle cx="1.77568" cy="81.7757" r="1.77568" fill="#EBEBEB"/>
<circle cx="12.7757" cy="81.7757" r="1.77568" fill="#EBEBEB"/>
<circle cx="23.7757" cy="81.7757" r="1.77568" fill="#EBEBEB"/>
<circle cx="34.7757" cy="81.7757" r="1.77568" fill="#EBEBEB"/>
<circle cx="45.7757" cy="81.7757" r="1.77568" fill="#EBEBEB"/>
<circle cx="56.7757" cy="81.7757" r="1.77568" fill="#EBEBEB"/>
<circle cx="67.7757" cy="81.7757" r="1.77568" fill="#EBEBEB"/>
<circle cx="78.7757" cy="81.7757" r="1.77568" fill="#EBEBEB"/>
<circle cx="89.7757" cy="81.7757" r="1.77568" fill="#EBEBEB"/>
<circle cx="100.776" cy="81.7757" r="1.77568" fill="#EBEBEB"/>
<circle cx="111.776" cy="81.7757" r="1.77568" fill="#EBEBEB"/>
<circle cx="122.776" cy="81.7757" r="1.77568" fill="#EBEBEB"/>
<circle cx="133.776" cy="81.7757" r="1.77568" fill="#EBEBEB"/>
<circle cx="144.776" cy="81.7757" r="1.77568" fill="#EBEBEB"/>
<circle cx="155.776" cy="81.7757" r="1.77568" fill="#EBEBEB"/>
<circle cx="166.776" cy="81.7757" r="1.77568" fill="#EBEBEB"/>
<circle cx="177.776" cy="81.7757" r="1.77568" fill="#EBEBEB"/>
<circle cx="188.776" cy="81.7757" r="1.77568" fill="#EBEBEB"/>
<circle cx="199.776" cy="81.7757" r="1.77568" fill="#EBEBEB"/>
<circle cx="210.776" cy="81.7757" r="1.77568" fill="#EBEBEB"/>
<circle cx="1.77568" cy="91.7757" r="1.77568" fill="#EBEBEB"/>
<circle cx="12.7757" cy="91.7757" r="1.77568" fill="#EBEBEB"/>
<circle cx="23.7757" cy="91.7757" r="1.77568" fill="#EBEBEB"/>
<circle cx="34.7757" cy="91.7757" r="1.77568" fill="#EBEBEB"/>
<circle cx="45.7757" cy="91.7757" r="1.77568" fill="#EBEBEB"/>
<circle cx="56.7757" cy="91.7757" r="1.77568" fill="#EBEBEB"/>
<circle cx="67.7757" cy="91.7757" r="1.77568" fill="#EBEBEB"/>
<circle cx="78.7757" cy="91.7757" r="1.77568" fill="#EBEBEB"/>
<circle cx="89.7757" cy="91.7757" r="1.77568" fill="#EBEBEB"/>
<circle cx="100.776" cy="91.7757" r="1.77568" fill="#EBEBEB"/>
<circle cx="111.776" cy="91.7757" r="1.77568" fill="#EBEBEB"/>
<circle cx="122.776" cy="91.7757" r="1.77568" fill="#EBEBEB"/>
<circle cx="133.776" cy="91.7757" r="1.77568" fill="#EBEBEB"/>
<circle cx="144.776" cy="91.7757" r="1.77568" fill="#EBEBEB"/>
<circle cx="155.776" cy="91.7757" r="1.77568" fill="#EBEBEB"/>
<circle cx="166.776" cy="91.7757" r="1.77568" fill="#EBEBEB"/>
<circle cx="177.776" cy="91.7757" r="1.77568" fill="#EBEBEB"/>
<circle cx="188.776" cy="91.7757" r="1.77568" fill="#EBEBEB"/>
<circle cx="199.776" cy="91.7757" r="1.77568" fill="#EBEBEB"/>
<circle cx="210.776" cy="91.7757" r="1.77568" fill="#EBEBEB"/>
<circle cx="1.77568" cy="101.776" r="1.77568" fill="#EBEBEB"/>
<circle cx="12.7757" cy="101.776" r="1.77568" fill="#EBEBEB"/>
<circle cx="23.7757" cy="101.776" r="1.77568" fill="#EBEBEB"/>
<circle cx="34.7757" cy="101.776" r="1.77568" fill="#EBEBEB"/>
<circle cx="45.7757" cy="101.776" r="1.77568" fill="#EBEBEB"/>
<circle cx="56.7757" cy="101.776" r="1.77568" fill="#EBEBEB"/>
<circle cx="67.7757" cy="101.776" r="1.77568" fill="#EBEBEB"/>
<circle cx="78.7757" cy="101.776" r="1.77568" fill="#EBEBEB"/>
<circle cx="89.7757" cy="101.776" r="1.77568" fill="#EBEBEB"/>
<circle cx="100.776" cy="101.776" r="1.77568" fill="#EBEBEB"/>
<circle cx="111.776" cy="101.776" r="1.77568" fill="#EBEBEB"/>
<circle cx="122.776" cy="101.776" r="1.77568" fill="#EBEBEB"/>
<circle cx="133.776" cy="101.776" r="1.77568" fill="#EBEBEB"/>
<circle cx="144.776" cy="101.776" r="1.77568" fill="#EBEBEB"/>
<circle cx="155.776" cy="101.776" r="1.77568" fill="#EBEBEB"/>
<circle cx="166.776" cy="101.776" r="1.77568" fill="#EBEBEB"/>
<circle cx="177.776" cy="101.776" r="1.77568" fill="#EBEBEB"/>
<circle cx="188.776" cy="101.776" r="1.77568" fill="#EBEBEB"/>
<circle cx="199.776" cy="101.776" r="1.77568" fill="#EBEBEB"/>
<circle cx="210.776" cy="101.776" r="1.77568" fill="#EBEBEB"/>
<circle cx="1.77568" cy="111.776" r="1.77568" fill="#EBEBEB"/>
<circle cx="12.7757" cy="111.776" r="1.77568" fill="#EBEBEB"/>
<circle cx="23.7757" cy="111.776" r="1.77568" fill="#EBEBEB"/>
<circle cx="34.7757" cy="111.776" r="1.77568" fill="#EBEBEB"/>
<circle cx="45.7757" cy="111.776" r="1.77568" fill="#EBEBEB"/>
<circle cx="56.7757" cy="111.776" r="1.77568" fill="#EBEBEB"/>
<circle cx="67.7757" cy="111.776" r="1.77568" fill="#EBEBEB"/>
<circle cx="78.7757" cy="111.776" r="1.77568" fill="#EBEBEB"/>
<circle cx="89.7757" cy="111.776" r="1.77568" fill="#EBEBEB"/>
<circle cx="100.776" cy="111.776" r="1.77568" fill="#EBEBEB"/>
<circle cx="111.776" cy="111.776" r="1.77568" fill="#EBEBEB"/>
<circle cx="122.776" cy="111.776" r="1.77568" fill="#EBEBEB"/>
<circle cx="133.776" cy="111.776" r="1.77568" fill="#EBEBEB"/>
<circle cx="144.776" cy="111.776" r="1.77568" fill="#EBEBEB"/>
<circle cx="155.776" cy="111.776" r="1.77568" fill="#EBEBEB"/>
<circle cx="166.776" cy="111.776" r="1.77568" fill="#EBEBEB"/>
<circle cx="177.776" cy="111.776" r="1.77568" fill="#EBEBEB"/>
<circle cx="188.776" cy="111.776" r="1.77568" fill="#EBEBEB"/>
<circle cx="199.776" cy="111.776" r="1.77568" fill="#EBEBEB"/>
<circle cx="210.776" cy="111.776" r="1.77568" fill="#EBEBEB"/>
<circle cx="1.77568" cy="121.776" r="1.77568" fill="#EBEBEB"/>
<circle cx="12.7757" cy="121.776" r="1.77568" fill="#EBEBEB"/>
<circle cx="23.7757" cy="121.776" r="1.77568" fill="#EBEBEB"/>
<circle cx="34.7757" cy="121.776" r="1.77568" fill="#EBEBEB"/>
<circle cx="45.7757" cy="121.776" r="1.77568" fill="#EBEBEB"/>
<circle cx="56.7757" cy="121.776" r="1.77568" fill="#EBEBEB"/>
<circle cx="67.7757" cy="121.776" r="1.77568" fill="#EBEBEB"/>
<circle cx="78.7757" cy="121.776" r="1.77568" fill="#EBEBEB"/>
<circle cx="89.7757" cy="121.776" r="1.77568" fill="#EBEBEB"/>
<circle cx="100.776" cy="121.776" r="1.77568" fill="#EBEBEB"/>
<circle cx="111.776" cy="121.776" r="1.77568" fill="#EBEBEB"/>
<circle cx="122.776" cy="121.776" r="1.77568" fill="#EBEBEB"/>
<circle cx="133.776" cy="121.776" r="1.77568" fill="#EBEBEB"/>
<circle cx="144.776" cy="121.776" r="1.77568" fill="#EBEBEB"/>
<circle cx="155.776" cy="121.776" r="1.77568" fill="#EBEBEB"/>
<circle cx="166.776" cy="121.776" r="1.77568" fill="#EBEBEB"/>
<circle cx="177.776" cy="121.776" r="1.77568" fill="#EBEBEB"/>
<circle cx="188.776" cy="121.776" r="1.77568" fill="#EBEBEB"/>
<circle cx="199.776" cy="121.776" r="1.77568" fill="#EBEBEB"/>
<circle cx="210.776" cy="121.776" r="1.77568" fill="#EBEBEB"/>
<circle cx="1.77568" cy="131.776" r="1.77568" fill="#EBEBEB"/>
<circle cx="12.7757" cy="131.776" r="1.77568" fill="#EBEBEB"/>
<circle cx="23.7757" cy="131.776" r="1.77568" fill="#EBEBEB"/>
<circle cx="34.7757" cy="131.776" r="1.77568" fill="#EBEBEB"/>
<circle cx="45.7757" cy="131.776" r="1.77568" fill="#EBEBEB"/>
<circle cx="56.7757" cy="131.776" r="1.77568" fill="#EBEBEB"/>
<circle cx="67.7757" cy="131.776" r="1.77568" fill="#EBEBEB"/>
<circle cx="78.7757" cy="131.776" r="1.77568" fill="#EBEBEB"/>
<circle cx="89.7757" cy="131.776" r="1.77568" fill="#EBEBEB"/>
<circle cx="100.776" cy="131.776" r="1.77568" fill="#EBEBEB"/>
<circle cx="111.776" cy="131.776" r="1.77568" fill="#EBEBEB"/>
<circle cx="122.776" cy="131.776" r="1.77568" fill="#EBEBEB"/>
<circle cx="133.776" cy="131.776" r="1.77568" fill="#EBEBEB"/>
<circle cx="144.776" cy="131.776" r="1.77568" fill="#EBEBEB"/>
<circle cx="155.776" cy="131.776" r="1.77568" fill="#EBEBEB"/>
<circle cx="166.776" cy="131.776" r="1.77568" fill="#EBEBEB"/>
<circle cx="177.776" cy="131.776" r="1.77568" fill="#EBEBEB"/>
<circle cx="188.776" cy="131.776" r="1.77568" fill="#EBEBEB"/>
<circle cx="199.776" cy="131.776" r="1.77568" fill="#EBEBEB"/>
<circle cx="210.776" cy="131.776" r="1.77568" fill="#EBEBEB"/>
<circle cx="1.77568" cy="141.776" r="1.77568" fill="#EBEBEB"/>
<circle cx="12.7757" cy="141.776" r="1.77568" fill="#EBEBEB"/>
<circle cx="23.7757" cy="141.776" r="1.77568" fill="#EBEBEB"/>
<circle cx="34.7757" cy="141.776" r="1.77568" fill="#EBEBEB"/>
<circle cx="45.7757" cy="141.776" r="1.77568" fill="#EBEBEB"/>
<circle cx="56.7757" cy="141.776" r="1.77568" fill="#EBEBEB"/>
<circle cx="67.7757" cy="141.776" r="1.77568" fill="#EBEBEB"/>
<circle cx="78.7757" cy="141.776" r="1.77568" fill="#EBEBEB"/>
<circle cx="89.7757" cy="141.776" r="1.77568" fill="#EBEBEB"/>
<circle cx="100.776" cy="141.776" r="1.77568" fill="#EBEBEB"/>
<circle cx="111.776" cy="141.776" r="1.77568" fill="#EBEBEB"/>
<circle cx="122.776" cy="141.776" r="1.77568" fill="#EBEBEB"/>
<circle cx="133.776" cy="141.776" r="1.77568" fill="#EBEBEB"/>
<circle cx="144.776" cy="141.776" r="1.77568" fill="#EBEBEB"/>
<circle cx="155.776" cy="141.776" r="1.77568" fill="#EBEBEB"/>
<circle cx="166.776" cy="141.776" r="1.77568" fill="#EBEBEB"/>
<circle cx="177.776" cy="141.776" r="1.77568" fill="#EBEBEB"/>
<circle cx="188.776" cy="141.776" r="1.77568" fill="#EBEBEB"/>
<circle cx="199.776" cy="141.776" r="1.77568" fill="#EBEBEB"/>
<circle cx="210.776" cy="141.776" r="1.77568" fill="#EBEBEB"/>
<circle cx="1.77568" cy="151.776" r="1.77568" fill="#EBEBEB"/>
<circle cx="12.7757" cy="151.776" r="1.77568" fill="#EBEBEB"/>
<circle cx="23.7757" cy="151.776" r="1.77568" fill="#EBEBEB"/>
<circle cx="34.7757" cy="151.776" r="1.77568" fill="#EBEBEB"/>
<circle cx="45.7757" cy="151.776" r="1.77568" fill="#EBEBEB"/>
<circle cx="56.7757" cy="151.776" r="1.77568" fill="#EBEBEB"/>
<circle cx="67.7757" cy="151.776" r="1.77568" fill="#EBEBEB"/>
<circle cx="78.7757" cy="151.776" r="1.77568" fill="#EBEBEB"/>
<circle cx="89.7757" cy="151.776" r="1.77568" fill="#EBEBEB"/>
<circle cx="100.776" cy="151.776" r="1.77568" fill="#EBEBEB"/>
<circle cx="111.776" cy="151.776" r="1.77568" fill="#EBEBEB"/>
<circle cx="122.776" cy="151.776" r="1.77568" fill="#EBEBEB"/>
<circle cx="133.776" cy="151.776" r="1.77568" fill="#EBEBEB"/>
<circle cx="144.776" cy="151.776" r="1.77568" fill="#EBEBEB"/>
<circle cx="155.776" cy="151.776" r="1.77568" fill="#EBEBEB"/>
<circle cx="166.776" cy="151.776" r="1.77568" fill="#EBEBEB"/>
<circle cx="177.776" cy="151.776" r="1.77568" fill="#EBEBEB"/>
<circle cx="188.776" cy="151.776" r="1.77568" fill="#EBEBEB"/>
<circle cx="199.776" cy="151.776" r="1.77568" fill="#EBEBEB"/>
<circle cx="210.776" cy="151.776" r="1.77568" fill="#EBEBEB"/>
</svg>
