<svg width="40" height="41" viewBox="0 0 40 41" fill="none" xmlns="http://www.w3.org/2000/svg">
<path d="M20.0117 3.60367C25.3586 3.60367 25.9918 3.62713 28.0946 3.72093C30.0489 3.80692 31.1042 4.13524 31.8077 4.40883C32.7379 4.76842 33.4102 5.20618 34.1059 5.9019C34.8095 6.60543 35.2394 7.26989 35.599 8.20012C35.8726 8.90366 36.2009 9.96678 36.2869 11.9132C36.3807 14.0238 36.4041 14.657 36.4041 19.9961C36.4041 25.343 36.3807 25.9762 36.2869 28.079C36.2009 30.0332 35.8726 31.0885 35.599 31.7921C35.2394 32.7223 34.8016 33.3946 34.1059 34.0903C33.4024 34.7938 32.7379 35.2238 31.8077 35.5834C31.1042 35.8569 30.041 36.1853 28.0946 36.2713C25.984 36.3651 25.3508 36.3885 20.0117 36.3885C14.6648 36.3885 14.0317 36.3651 11.9289 36.2713C9.9746 36.1853 8.91929 35.8569 8.21575 35.5834C7.28552 35.2238 6.61325 34.786 5.91753 34.0903C5.21399 33.3867 4.78405 32.7223 4.42447 31.7921C4.15087 31.0885 3.82255 30.0254 3.73656 28.079C3.64276 25.9683 3.61931 25.3352 3.61931 19.9961C3.61931 14.6492 3.64276 14.016 3.73656 11.9132C3.82255 9.95896 4.15087 8.90366 4.42447 8.20012C4.78405 7.26989 5.22181 6.59762 5.91753 5.9019C6.62107 5.19836 7.28552 4.76842 8.21575 4.40883C8.91929 4.13524 9.98241 3.80692 11.9289 3.72093C14.0317 3.62713 14.6648 3.60367 20.0117 3.60367ZM20.0117 0C14.5789 0 13.8988 0.0234512 11.7647 0.117256C9.63846 0.211061 8.17667 0.555013 6.9103 1.04749C5.58921 1.56342 4.47137 2.2435 3.36134 3.36134C2.2435 4.47137 1.56342 5.58921 1.04749 6.90248C0.555013 8.17667 0.211061 9.63064 0.117256 11.7569C0.0234513 13.8988 0 14.5789 0 20.0117C0 25.4446 0.0234513 26.1247 0.117256 28.2587C0.211061 30.385 0.555013 31.8468 1.04749 33.1132C1.56342 34.4342 2.2435 35.5521 3.36134 36.6621C4.47137 37.7721 5.58921 38.46 6.90248 38.9681C8.17667 39.4606 9.63064 39.8046 11.7569 39.8984C13.891 39.9922 14.571 40.0156 20.0039 40.0156C25.4368 40.0156 26.1169 39.9922 28.2509 39.8984C30.3772 39.8046 31.839 39.4606 33.1053 38.9681C34.4186 38.46 35.5364 37.7721 36.6465 36.6621C37.7565 35.5521 38.4444 34.4342 38.9525 33.121C39.445 31.8468 39.7889 30.3928 39.8827 28.2666C39.9766 26.1325 40 25.4524 40 20.0195C40 14.5867 39.9766 13.9066 39.8827 11.7725C39.7889 9.64628 39.445 8.18448 38.9525 6.91812C38.46 5.58921 37.78 4.47137 36.6621 3.36134C35.5521 2.25132 34.4342 1.56342 33.121 1.05531C31.8468 0.56283 30.3928 0.218878 28.2666 0.125073C26.1247 0.0234513 25.4446 0 20.0117 0Z" fill="white"/>
<path d="M20.2795 10C14.6043 10 10 14.6043 10 20.2795C10 25.9547 14.6043 30.5589 20.2795 30.5589C25.9547 30.5589 30.5589 25.9547 30.5589 20.2795C30.5589 14.6043 25.9547 10 20.2795 10ZM20.2795 26.9474C16.5976 26.9474 13.6115 23.9613 13.6115 20.2795C13.6115 16.5976 16.5976 13.6115 20.2795 13.6115C23.9613 13.6115 26.9474 16.5976 26.9474 20.2795C26.9474 23.9613 23.9613 26.9474 20.2795 26.9474Z" fill="white"/>
<path d="M33.0975 9.32564C33.0975 10.6545 32.0188 11.7255 30.6977 11.7255C29.3688 11.7255 28.2978 10.6467 28.2978 9.32564C28.2978 7.99673 29.3766 6.92579 30.6977 6.92579C32.0188 6.92579 33.0975 8.00455 33.0975 9.32564Z" fill="white"/>
</svg>
