<svg width="40" height="29" viewBox="0 0 40 29" fill="none" xmlns="http://www.w3.org/2000/svg">
<path d="M39.6016 6.08594C39.6016 6.08594 39.2109 3.32813 38.0078 2.11719C36.4844 0.523438 34.7812 0.515625 34 0.421875C28.4063 0.0156248 20.0078 0.015625 20.0078 0.015625H19.9922C19.9922 0.015625 11.5938 0.0156248 6 0.421875C5.21875 0.515625 3.51562 0.523438 1.99219 2.11719C0.789063 3.32813 0.40625 6.08594 0.40625 6.08594C0.40625 6.08594 0 9.32813 0 12.5625V15.5937C0 18.8281 0.398437 22.0703 0.398437 22.0703C0.398437 22.0703 0.789062 24.8281 1.98437 26.0391C3.50781 27.6328 5.50781 27.5781 6.39844 27.75C9.60156 28.0547 20 28.1484 20 28.1484C20 28.1484 28.4063 28.1328 34 27.7344C34.7812 27.6406 36.4844 27.6328 38.0078 26.0391C39.2109 24.8281 39.6016 22.0703 39.6016 22.0703C39.6016 22.0703 40 18.8359 40 15.5937V12.5625C40 9.32813 39.6016 6.08594 39.6016 6.08594ZM15.8672 19.2734V8.03125L26.6719 13.6719L15.8672 19.2734Z" fill="white"/>
</svg>
