<svg width="40" height="33" viewBox="0 0 40 33" fill="none" xmlns="http://www.w3.org/2000/svg">
<path d="M12.5836 32.6496C27.6742 32.6496 35.9305 20.1442 35.9305 9.30276C35.9305 8.9512 35.9227 8.59182 35.907 8.24026C37.5131 7.07876 38.8992 5.64008 40 3.99182C38.5042 4.65732 36.9161 5.09196 35.2898 5.28088C37.0021 4.2545 38.2842 2.64211 38.8984 0.742603C37.2876 1.69725 35.526 2.37068 33.6891 2.73401C32.4514 1.41893 30.815 0.548185 29.0328 0.25641C27.2506 -0.0353656 25.422 0.268076 23.8296 1.11982C22.2372 1.97156 20.9697 3.32417 20.2231 4.96851C19.4765 6.61285 19.2924 8.45735 19.6992 10.2168C16.4375 10.0531 13.2466 9.20583 10.3333 7.72982C7.42004 6.25381 4.84949 4.18205 2.78828 1.64885C1.74067 3.45506 1.42009 5.5924 1.89172 7.62648C2.36334 9.66055 3.59177 11.4387 5.32734 12.5996C4.02438 12.5583 2.74996 12.2075 1.60938 11.5762V11.6778C1.60821 13.5732 2.2635 15.4106 3.46385 16.8776C4.6642 18.3446 6.33554 19.3506 8.19375 19.7246C6.98676 20.0549 5.71997 20.103 4.49141 19.8653C5.01576 21.4954 6.03595 22.9211 7.40962 23.9435C8.78328 24.9659 10.4419 25.534 12.1539 25.5684C9.24737 27.8515 5.65696 29.0899 1.96094 29.084C1.30548 29.083 0.650665 29.0428 0 28.9637C3.75476 31.3726 8.12255 32.652 12.5836 32.6496Z" fill="white"/>
</svg>
